<mxfile host="app.diagrams.net" modified="2024-05-11T08:10:04.254Z" agent="Mozilla/5.0 (Windows NT 10.0; Win64; x64) AppleWebKit/537.36 (KHTML, like Gecko) Chrome/124.0.0.0 Safari/537.36" etag="95At7kF_uSOl1dOnIdK6" version="24.4.0" type="device">
  <diagram id="prtHgNgQTEPvFCAcTncT" name="Page-1">
    <mxGraphModel dx="3200" dy="1128" grid="1" gridSize="10" guides="1" tooltips="1" connect="1" arrows="1" fold="1" page="1" pageScale="1" pageWidth="1100" pageHeight="850" math="0" shadow="0">
      <root>
        <mxCell id="0" />
        <mxCell id="1" parent="0" />
        <mxCell id="9lZ008rthi-1Io387yjq-19" value="PayrollTest" style="swimlane;fontSize=14;startSize=23;" parent="1" vertex="1">
          <mxGeometry x="50" y="80" width="200" height="100" as="geometry" />
        </mxCell>
        <mxCell id="9lZ008rthi-1Io387yjq-22" value="&lt;div&gt;+ PayrollTest()&lt;br&gt;&lt;/div&gt;&lt;div&gt;+ main(String[] args): void&lt;/div&gt;" style="text;html=1;align=left;verticalAlign=middle;resizable=0;points=[];autosize=1;strokeColor=none;fillColor=none;fontSize=15;" parent="9lZ008rthi-1Io387yjq-19" vertex="1">
          <mxGeometry y="25" width="200" height="50" as="geometry" />
        </mxCell>
        <mxCell id="0-hA2W_cpCPpV_t6YLu7-19" style="edgeStyle=orthogonalEdgeStyle;rounded=0;orthogonalLoop=1;jettySize=auto;html=1;entryX=0.5;entryY=0;entryDx=0;entryDy=0;" parent="1" source="LcrMxiL6GuTGsdU8cqxs-2" target="LcrMxiL6GuTGsdU8cqxs-20" edge="1">
          <mxGeometry relative="1" as="geometry" />
        </mxCell>
        <mxCell id="0-hA2W_cpCPpV_t6YLu7-20" style="edgeStyle=orthogonalEdgeStyle;rounded=0;orthogonalLoop=1;jettySize=auto;html=1;entryX=0.5;entryY=0;entryDx=0;entryDy=0;" parent="1" source="LcrMxiL6GuTGsdU8cqxs-2" target="0-hA2W_cpCPpV_t6YLu7-10" edge="1">
          <mxGeometry relative="1" as="geometry" />
        </mxCell>
        <mxCell id="LcrMxiL6GuTGsdU8cqxs-2" value="Employee" style="swimlane;fontSize=14;startSize=23;" parent="1" vertex="1">
          <mxGeometry x="345" y="20" width="410" height="240" as="geometry" />
        </mxCell>
        <mxCell id="LcrMxiL6GuTGsdU8cqxs-3" value="" style="line;strokeWidth=2;html=1;fontSize=14;" parent="LcrMxiL6GuTGsdU8cqxs-2" vertex="1">
          <mxGeometry y="95" width="410" height="10" as="geometry" />
        </mxCell>
        <mxCell id="LcrMxiL6GuTGsdU8cqxs-5" value="+ &amp;lt;&amp;lt;constructor&amp;gt;&amp;gt; Employee(firstName: String, lastName: String,&lt;div style=&quot;font-size: 14px;&quot;&gt;&lt;span style=&quot;white-space: pre; font-size: 14px;&quot;&gt;&#x9;&lt;/span&gt;&lt;span style=&quot;white-space: pre; font-size: 14px;&quot;&gt;&#x9;&lt;/span&gt;&lt;span style=&quot;white-space: pre; font-size: 14px;&quot;&gt;&#x9;&lt;span style=&quot;white-space: pre; font-size: 14px;&quot;&gt;&#x9;&lt;/span&gt;&lt;span style=&quot;white-space: pre; font-size: 14px;&quot;&gt;&#x9;&lt;/span&gt;&lt;span style=&quot;white-space: pre; font-size: 14px;&quot;&gt;&#x9;&lt;/span&gt;s&lt;/span&gt;ocialSecurityNumber: String)&lt;/div&gt;&lt;div style=&quot;font-size: 14px;&quot;&gt;&lt;div style=&quot;font-size: 14px;&quot;&gt;&lt;span style=&quot;background-color: initial; font-size: 14px;&quot;&gt;+ getFirstName(): String&lt;/span&gt;&lt;/div&gt;&lt;div style=&quot;font-size: 14px;&quot;&gt;+ getLastName(): String&lt;span style=&quot;background-color: initial; font-size: 14px;&quot;&gt;&lt;br style=&quot;font-size: 14px;&quot;&gt;&lt;/span&gt;&lt;/div&gt;&lt;div style=&quot;font-size: 14px;&quot;&gt;+ getSocialSecurityNumber(): String&lt;br style=&quot;font-size: 14px;&quot;&gt;&lt;/div&gt;&lt;div style=&quot;font-size: 14px;&quot;&gt;+ earnings(): double&lt;/div&gt;&lt;div style=&quot;font-size: 14px;&quot;&gt;+ toString(): String&lt;/div&gt;&lt;/div&gt;" style="text;html=1;align=left;verticalAlign=middle;resizable=0;points=[];autosize=1;strokeColor=none;fillColor=none;fontSize=14;" parent="LcrMxiL6GuTGsdU8cqxs-2" vertex="1">
          <mxGeometry y="105" width="430" height="130" as="geometry" />
        </mxCell>
        <mxCell id="LcrMxiL6GuTGsdU8cqxs-4" value="&lt;span style=&quot;font-size: 14px;&quot;&gt;- firstName: String&lt;/span&gt;&lt;div style=&quot;font-size: 14px;&quot;&gt;&lt;span style=&quot;font-size: 14px;&quot;&gt;- lastName: String&lt;/span&gt;&lt;/div&gt;&lt;div style=&quot;font-size: 14px;&quot;&gt;&lt;span style=&quot;font-size: 14px;&quot;&gt;- socialSecurityNumber&lt;/span&gt;&lt;span style=&quot;font-size: 14px; background-color: initial;&quot;&gt;: String&lt;/span&gt;&lt;/div&gt;" style="text;html=1;align=left;verticalAlign=middle;resizable=0;points=[];autosize=1;strokeColor=none;fillColor=none;fontSize=14;" parent="LcrMxiL6GuTGsdU8cqxs-2" vertex="1">
          <mxGeometry y="35" width="210" height="60" as="geometry" />
        </mxCell>
        <mxCell id="LcrMxiL6GuTGsdU8cqxs-8" value="SalariedEmployee" style="swimlane;fontSize=14;startSize=23;" parent="1" vertex="1">
          <mxGeometry x="-420" y="320" width="460" height="190" as="geometry" />
        </mxCell>
        <mxCell id="LcrMxiL6GuTGsdU8cqxs-10" value="+ &amp;lt;&amp;lt;constructor&amp;gt;&amp;gt; SalariedEmployee(firstName: String, lastName: String,&lt;div style=&quot;font-size: 14px;&quot;&gt;&lt;span style=&quot;background-color: initial; white-space-collapse: preserve;&quot;&gt;&#x9;&lt;/span&gt;&lt;span style=&quot;background-color: initial; white-space-collapse: preserve;&quot;&gt;&#x9;&lt;/span&gt;&lt;span style=&quot;background-color: initial; white-space-collapse: preserve;&quot;&gt;&#x9;&lt;span style=&quot;white-space-collapse: preserve;&quot;&gt;&#x9;&lt;/span&gt;&lt;span style=&quot;white-space-collapse: preserve;&quot;&gt;&#x9;&lt;/span&gt;&lt;span style=&quot;white-space-collapse: preserve;&quot;&gt;&#x9;&lt;/span&gt;             s&lt;/span&gt;&lt;span style=&quot;background-color: initial;&quot;&gt;ocialSecurityNumber: String,&amp;nbsp;&lt;/span&gt;&lt;/div&gt;&lt;div style=&quot;font-size: 14px;&quot;&gt;&lt;span style=&quot;background-color: initial;&quot;&gt;&lt;span style=&quot;white-space: pre;&quot;&gt;&#x9;&lt;/span&gt;&lt;span style=&quot;white-space: pre;&quot;&gt;&#x9;&lt;/span&gt;&lt;span style=&quot;white-space: pre;&quot;&gt;&#x9;&lt;/span&gt;&lt;span style=&quot;white-space: pre;&quot;&gt;&#x9;&lt;/span&gt;&lt;span style=&quot;white-space: pre;&quot;&gt;&#x9;&lt;/span&gt;&lt;span style=&quot;white-space: pre;&quot;&gt;&#x9;&lt;/span&gt;&lt;span style=&quot;white-space: pre;&quot;&gt;&#x9;&lt;/span&gt;&amp;nbsp; &amp;nbsp; &amp;nbsp;weeklySalary: double&lt;/span&gt;&lt;span style=&quot;background-color: initial;&quot;&gt;)&lt;/span&gt;&lt;/div&gt;&lt;div style=&quot;font-size: 14px;&quot;&gt;&lt;div style=&quot;font-size: 14px;&quot;&gt;&lt;span style=&quot;background-color: initial; font-size: 14px;&quot;&gt;+ setWeeklySalary(weeklySalary: double)&lt;/span&gt;&lt;/div&gt;&lt;div style=&quot;font-size: 14px;&quot;&gt;+ getWeeklySalary(): double&lt;span style=&quot;background-color: initial; font-size: 14px;&quot;&gt;&lt;br style=&quot;font-size: 14px;&quot;&gt;&lt;/span&gt;&lt;/div&gt;&lt;div style=&quot;font-size: 14px;&quot;&gt;+ earnings(): double&lt;/div&gt;&lt;div style=&quot;font-size: 14px;&quot;&gt;+ toString(): String&lt;/div&gt;&lt;/div&gt;" style="text;html=1;align=left;verticalAlign=middle;resizable=0;points=[];autosize=1;strokeColor=none;fillColor=none;fontSize=14;" parent="LcrMxiL6GuTGsdU8cqxs-8" vertex="1">
          <mxGeometry y="60" width="480" height="130" as="geometry" />
        </mxCell>
        <mxCell id="LcrMxiL6GuTGsdU8cqxs-11" value="&lt;span style=&quot;font-size: 14px;&quot;&gt;- weeklySalary: double&lt;/span&gt;" style="text;html=1;align=left;verticalAlign=middle;resizable=0;points=[];autosize=1;strokeColor=none;fillColor=none;fontSize=14;" parent="LcrMxiL6GuTGsdU8cqxs-8" vertex="1">
          <mxGeometry y="30" width="160" height="30" as="geometry" />
        </mxCell>
        <mxCell id="0-hA2W_cpCPpV_t6YLu7-1" value="" style="line;strokeWidth=2;html=1;fontSize=14;" parent="LcrMxiL6GuTGsdU8cqxs-8" vertex="1">
          <mxGeometry y="60" width="460" height="10" as="geometry" />
        </mxCell>
        <mxCell id="LcrMxiL6GuTGsdU8cqxs-12" value="HourlyEmployee" style="swimlane;fontSize=14;startSize=23;" parent="1" vertex="1">
          <mxGeometry x="70" y="320" width="450" height="220" as="geometry" />
        </mxCell>
        <mxCell id="LcrMxiL6GuTGsdU8cqxs-14" value="+ &amp;lt;&amp;lt;constructor&amp;gt;&amp;gt; HourlyEmployee(firstName: String, lastName: String,&lt;div&gt;&lt;span style=&quot;background-color: initial; white-space-collapse: preserve;&quot;&gt;&#x9;&lt;/span&gt;&lt;span style=&quot;background-color: initial; white-space-collapse: preserve;&quot;&gt;&#x9;&lt;/span&gt;&lt;span style=&quot;background-color: initial; white-space-collapse: preserve;&quot;&gt;&#x9;&lt;span style=&quot;white-space-collapse: preserve;&quot;&gt;&#x9;&lt;/span&gt;&lt;span style=&quot;white-space-collapse: preserve;&quot;&gt;&#x9;&lt;/span&gt;&lt;span style=&quot;white-space-collapse: preserve;&quot;&gt;&#x9;&lt;/span&gt;          s&lt;/span&gt;&lt;span style=&quot;background-color: initial;&quot;&gt;ocialSecurityNumber: String,&amp;nbsp;&lt;/span&gt;&lt;/div&gt;&lt;div&gt;&lt;span style=&quot;background-color: initial;&quot;&gt;&lt;span style=&quot;white-space: pre;&quot;&gt;&#x9;&lt;/span&gt;&lt;span style=&quot;white-space: pre;&quot;&gt;&#x9;&lt;/span&gt;&lt;span style=&quot;white-space: pre;&quot;&gt;&#x9;&lt;/span&gt;&lt;span style=&quot;white-space: pre;&quot;&gt;&#x9;&lt;/span&gt;&lt;span style=&quot;white-space: pre;&quot;&gt;&#x9;&lt;/span&gt;&lt;span style=&quot;white-space: pre;&quot;&gt;&#x9;&lt;/span&gt;&lt;span style=&quot;white-space: pre;&quot;&gt;&#x9;&lt;/span&gt;&amp;nbsp; wage: double, hours: double&lt;/span&gt;&lt;span style=&quot;background-color: initial;&quot;&gt;)&lt;/span&gt;&lt;span style=&quot;background-color: initial;&quot;&gt;&amp;nbsp;&lt;/span&gt;&lt;/div&gt;&lt;div&gt;&lt;div style=&quot;font-size: 14px;&quot;&gt;&lt;div style=&quot;font-size: 14px;&quot;&gt;&lt;span style=&quot;background-color: initial; font-size: 14px;&quot;&gt;+ setWage(wage: double)&lt;/span&gt;&lt;/div&gt;&lt;div style=&quot;font-size: 14px;&quot;&gt;&lt;span style=&quot;background-color: initial; font-size: 14px;&quot;&gt;+ setHours(hours: double)&lt;/span&gt;&lt;/div&gt;&lt;div style=&quot;font-size: 14px;&quot;&gt;+ getWage(): double&lt;/div&gt;&lt;div style=&quot;font-size: 14px;&quot;&gt;+ getHours(): double&lt;/div&gt;&lt;div style=&quot;font-size: 14px;&quot;&gt;+ earnings(): double&lt;/div&gt;&lt;div style=&quot;font-size: 14px;&quot;&gt;+ toString(): String&lt;/div&gt;&lt;/div&gt;&lt;/div&gt;" style="text;html=1;align=left;verticalAlign=middle;resizable=0;points=[];autosize=1;strokeColor=none;fillColor=none;fontSize=14;" parent="LcrMxiL6GuTGsdU8cqxs-12" vertex="1">
          <mxGeometry y="60" width="470" height="160" as="geometry" />
        </mxCell>
        <mxCell id="LcrMxiL6GuTGsdU8cqxs-9" value="" style="line;strokeWidth=2;html=1;fontSize=14;" parent="LcrMxiL6GuTGsdU8cqxs-12" vertex="1">
          <mxGeometry y="60" width="450" height="10" as="geometry" />
        </mxCell>
        <mxCell id="0-hA2W_cpCPpV_t6YLu7-3" value="&lt;span style=&quot;font-size: 14px;&quot;&gt;- wage: double&lt;/span&gt;&lt;div&gt;&lt;span style=&quot;font-size: 14px;&quot;&gt;- hours: double&lt;/span&gt;&lt;/div&gt;" style="text;html=1;align=left;verticalAlign=middle;resizable=0;points=[];autosize=1;strokeColor=none;fillColor=none;fontSize=14;" parent="LcrMxiL6GuTGsdU8cqxs-12" vertex="1">
          <mxGeometry y="20" width="120" height="50" as="geometry" />
        </mxCell>
        <mxCell id="LcrMxiL6GuTGsdU8cqxs-16" value="BaseCommissionEmployee" style="swimlane;fontSize=14;startSize=23;" parent="1" vertex="1">
          <mxGeometry x="570" y="630" width="540" height="205" as="geometry" />
        </mxCell>
        <mxCell id="LcrMxiL6GuTGsdU8cqxs-18" value="+ &amp;lt;&amp;lt;constructor&amp;gt;&amp;gt; BaseCommissionEmployee(firstName: String, lastName: String,&lt;div&gt;&lt;span style=&quot;background-color: initial; white-space-collapse: preserve;&quot;&gt;&#x9;&lt;/span&gt;&lt;span style=&quot;background-color: initial; white-space-collapse: preserve;&quot;&gt;&#x9;&lt;/span&gt;&lt;span style=&quot;background-color: initial; white-space-collapse: preserve;&quot;&gt;&#x9;&lt;span style=&quot;white-space-collapse: preserve;&quot;&gt;&#x9;&lt;/span&gt;&lt;span style=&quot;white-space-collapse: preserve;&quot;&gt;&#x9;&lt;/span&gt;&lt;span style=&quot;white-space-collapse: preserve;&quot;&gt;&#x9;&lt;/span&gt;          &lt;span style=&quot;white-space: pre;&quot;&gt;&#x9;&lt;/span&gt;&lt;span style=&quot;white-space: pre;&quot;&gt;&#x9;&lt;/span&gt;   s&lt;/span&gt;&lt;span style=&quot;background-color: initial;&quot;&gt;ocialSecurityNumber: String,&amp;nbsp;&lt;/span&gt;&lt;/div&gt;&lt;div&gt;&lt;span style=&quot;background-color: initial;&quot;&gt;&lt;span style=&quot;white-space-collapse: preserve;&quot;&gt;&#x9;&lt;/span&gt;&lt;span style=&quot;white-space-collapse: preserve;&quot;&gt;&#x9;&lt;/span&gt;&lt;span style=&quot;white-space-collapse: preserve;&quot;&gt;&#x9;&lt;/span&gt;&lt;span style=&quot;white-space-collapse: preserve;&quot;&gt;&#x9;&lt;/span&gt;&lt;span style=&quot;white-space-collapse: preserve;&quot;&gt;&#x9;&lt;/span&gt;&lt;span style=&quot;white-space-collapse: preserve;&quot;&gt;&#x9;&lt;/span&gt;&lt;span style=&quot;white-space-collapse: preserve;&quot;&gt;&#x9;&lt;/span&gt;&amp;nbsp; &lt;span style=&quot;white-space: pre;&quot;&gt;&#x9;&lt;/span&gt;&lt;span style=&quot;white-space: pre;&quot;&gt;&#x9;&lt;/span&gt;&amp;nbsp; &amp;nbsp;grossSales: double,&lt;/span&gt;&lt;/div&gt;&lt;div&gt;&lt;span style=&quot;background-color: initial;&quot;&gt;&lt;span style=&quot;white-space: pre;&quot;&gt;&#x9;&lt;/span&gt;&lt;span style=&quot;white-space: pre;&quot;&gt;&#x9;&lt;/span&gt;&lt;span style=&quot;white-space: pre;&quot;&gt;&#x9;&lt;/span&gt;&lt;span style=&quot;white-space: pre;&quot;&gt;&#x9;&lt;/span&gt;&lt;span style=&quot;white-space: pre;&quot;&gt;&#x9;&lt;/span&gt;&lt;span style=&quot;white-space: pre;&quot;&gt;&#x9;&lt;/span&gt;&lt;span style=&quot;white-space: pre;&quot;&gt;&#x9;&lt;/span&gt;&lt;span style=&quot;white-space: pre;&quot;&gt;&#x9;&lt;/span&gt;&lt;span style=&quot;white-space: pre;&quot;&gt;&#x9;&lt;/span&gt;&amp;nbsp; &amp;nbsp;commissionRate: double,&amp;nbsp;&lt;/span&gt;&lt;/div&gt;&lt;div&gt;&lt;span style=&quot;background-color: initial;&quot;&gt;&lt;span style=&quot;white-space: pre;&quot;&gt;&#x9;&lt;/span&gt;&lt;span style=&quot;white-space: pre;&quot;&gt;&#x9;&lt;/span&gt;&lt;span style=&quot;white-space: pre;&quot;&gt;&#x9;&lt;/span&gt;&lt;span style=&quot;white-space: pre;&quot;&gt;&#x9;&lt;/span&gt;&lt;span style=&quot;white-space: pre;&quot;&gt;&#x9;&lt;/span&gt;&lt;span style=&quot;white-space: pre;&quot;&gt;&#x9;&lt;/span&gt;&lt;span style=&quot;white-space: pre;&quot;&gt;&#x9;&lt;/span&gt;&lt;span style=&quot;white-space: pre;&quot;&gt;&#x9;&lt;/span&gt;&lt;span style=&quot;white-space: pre;&quot;&gt;&#x9;&lt;/span&gt;&amp;nbsp; &amp;nbsp;baseSalary: double&lt;/span&gt;&lt;span style=&quot;background-color: initial;&quot;&gt;)&lt;/span&gt;&lt;/div&gt;&lt;div&gt;&lt;div&gt;&lt;span style=&quot;background-color: initial;&quot;&gt;+ setBaseSalary(baseSalary: double)&lt;/span&gt;&lt;/div&gt;&lt;div&gt;&lt;span style=&quot;background-color: initial;&quot;&gt;+ getBaseSalary(): double&lt;/span&gt;&lt;/div&gt;&lt;/div&gt;&lt;div&gt;&lt;span style=&quot;background-color: initial;&quot;&gt;+ earnings(): double&lt;/span&gt;&lt;/div&gt;&lt;div style=&quot;font-size: 14px;&quot;&gt;&lt;div style=&quot;font-size: 14px;&quot;&gt;+ toString(): String&lt;/div&gt;&lt;/div&gt;" style="text;html=1;align=left;verticalAlign=middle;resizable=0;points=[];autosize=1;strokeColor=none;fillColor=none;fontSize=14;" parent="LcrMxiL6GuTGsdU8cqxs-16" vertex="1">
          <mxGeometry y="45" width="540" height="160" as="geometry" />
        </mxCell>
        <mxCell id="0-hA2W_cpCPpV_t6YLu7-8" value="" style="line;strokeWidth=2;html=1;fontSize=14;" parent="LcrMxiL6GuTGsdU8cqxs-16" vertex="1">
          <mxGeometry y="40" width="540" height="10" as="geometry" />
        </mxCell>
        <mxCell id="0-hA2W_cpCPpV_t6YLu7-9" value="&lt;span style=&quot;font-size: 14px;&quot;&gt;- baseSalary: double&lt;/span&gt;" style="text;html=1;align=left;verticalAlign=middle;resizable=0;points=[];autosize=1;strokeColor=none;fillColor=none;fontSize=14;" parent="LcrMxiL6GuTGsdU8cqxs-16" vertex="1">
          <mxGeometry y="20" width="150" height="30" as="geometry" />
        </mxCell>
        <mxCell id="0-hA2W_cpCPpV_t6YLu7-21" value="" style="edgeStyle=orthogonalEdgeStyle;rounded=0;orthogonalLoop=1;jettySize=auto;html=1;" parent="1" source="LcrMxiL6GuTGsdU8cqxs-20" edge="1">
          <mxGeometry relative="1" as="geometry">
            <mxPoint x="785" y="630" as="targetPoint" />
            <Array as="points">
              <mxPoint x="785" y="580" />
              <mxPoint x="785" y="580" />
            </Array>
          </mxGeometry>
        </mxCell>
        <mxCell id="LcrMxiL6GuTGsdU8cqxs-20" value="CommissionEmployee" style="swimlane;fontSize=14;startSize=23;" parent="1" vertex="1">
          <mxGeometry x="560" y="320" width="500" height="250" as="geometry" />
        </mxCell>
        <mxCell id="0-hA2W_cpCPpV_t6YLu7-6" value="" style="line;strokeWidth=2;html=1;fontSize=14;" parent="LcrMxiL6GuTGsdU8cqxs-20" vertex="1">
          <mxGeometry y="60" width="500" height="10" as="geometry" />
        </mxCell>
        <mxCell id="0-hA2W_cpCPpV_t6YLu7-7" value="&lt;span style=&quot;font-size: 14px;&quot;&gt;- grossSales: double&lt;/span&gt;&lt;div&gt;&lt;span style=&quot;font-size: 14px;&quot;&gt;- commissionRate: double&lt;/span&gt;&lt;/div&gt;" style="text;html=1;align=left;verticalAlign=middle;resizable=0;points=[];autosize=1;strokeColor=none;fillColor=none;fontSize=14;" parent="LcrMxiL6GuTGsdU8cqxs-20" vertex="1">
          <mxGeometry y="20" width="190" height="50" as="geometry" />
        </mxCell>
        <mxCell id="LcrMxiL6GuTGsdU8cqxs-21" value="+ &amp;lt;&amp;lt;constructor&amp;gt;&amp;gt; CommissionEmployee(firstName: String, lastName: String,&lt;div&gt;&lt;span style=&quot;background-color: initial; white-space-collapse: preserve;&quot;&gt;&#x9;&lt;/span&gt;&lt;span style=&quot;background-color: initial; white-space-collapse: preserve;&quot;&gt;&#x9;&lt;/span&gt;&lt;span style=&quot;background-color: initial; white-space-collapse: preserve;&quot;&gt;&#x9;&lt;span style=&quot;white-space-collapse: preserve;&quot;&gt;&#x9;&lt;/span&gt;&lt;span style=&quot;white-space-collapse: preserve;&quot;&gt;&#x9;&lt;/span&gt;&lt;span style=&quot;white-space-collapse: preserve;&quot;&gt;&#x9;&lt;/span&gt;          &lt;span style=&quot;white-space: pre;&quot;&gt;&#x9;&lt;/span&gt;   s&lt;/span&gt;&lt;span style=&quot;background-color: initial;&quot;&gt;ocialSecurityNumber: String,&amp;nbsp;&lt;/span&gt;&lt;/div&gt;&lt;div&gt;&lt;span style=&quot;background-color: initial;&quot;&gt;&lt;span style=&quot;white-space-collapse: preserve;&quot;&gt;&#x9;&lt;/span&gt;&lt;span style=&quot;white-space-collapse: preserve;&quot;&gt;&#x9;&lt;/span&gt;&lt;span style=&quot;white-space-collapse: preserve;&quot;&gt;&#x9;&lt;/span&gt;&lt;span style=&quot;white-space-collapse: preserve;&quot;&gt;&#x9;&lt;/span&gt;&lt;span style=&quot;white-space-collapse: preserve;&quot;&gt;&#x9;&lt;/span&gt;&lt;span style=&quot;white-space-collapse: preserve;&quot;&gt;&#x9;&lt;/span&gt;&lt;span style=&quot;white-space-collapse: preserve;&quot;&gt;&#x9;&lt;/span&gt;&amp;nbsp; &lt;span style=&quot;white-space: pre;&quot;&gt;&#x9;&lt;/span&gt;&amp;nbsp; &amp;nbsp;grossSales: double,&amp;nbsp;&lt;/span&gt;&lt;/div&gt;&lt;div&gt;&lt;span style=&quot;background-color: initial;&quot;&gt;&lt;span style=&quot;white-space: pre;&quot;&gt;&#x9;&lt;/span&gt;&lt;span style=&quot;white-space: pre;&quot;&gt;&#x9;&lt;/span&gt;&lt;span style=&quot;white-space: pre;&quot;&gt;&#x9;&lt;/span&gt;&lt;span style=&quot;white-space: pre;&quot;&gt;&#x9;&lt;/span&gt;&lt;span style=&quot;white-space: pre;&quot;&gt;&#x9;&lt;/span&gt;&lt;span style=&quot;white-space: pre;&quot;&gt;&#x9;&lt;/span&gt;&lt;span style=&quot;white-space: pre;&quot;&gt;&#x9;&lt;/span&gt;&lt;span style=&quot;white-space: pre;&quot;&gt;&#x9;&lt;/span&gt;&amp;nbsp; &amp;nbsp;commissionRate: double&lt;/span&gt;&lt;span style=&quot;background-color: initial;&quot;&gt;)&lt;/span&gt;&lt;/div&gt;&lt;div&gt;&lt;span style=&quot;background-color: initial;&quot;&gt;+ setGrossSales(grossSales: double)&lt;/span&gt;&lt;/div&gt;&lt;div&gt;&lt;span style=&quot;background-color: initial;&quot;&gt;+ setCommissionRate(commissionRate: double)&lt;/span&gt;&lt;/div&gt;&lt;div&gt;&lt;span style=&quot;background-color: initial;&quot;&gt;+ getGrossSales(): double&lt;/span&gt;&lt;/div&gt;&lt;div&gt;&lt;span style=&quot;background-color: initial;&quot;&gt;+ getCommissionRate(): double&lt;/span&gt;&lt;/div&gt;&lt;div&gt;&lt;span style=&quot;background-color: initial;&quot;&gt;+ earnings(): double&lt;/span&gt;&lt;/div&gt;&lt;div style=&quot;font-size: 14px;&quot;&gt;&lt;div style=&quot;font-size: 14px;&quot;&gt;+ toString(): String&lt;/div&gt;&lt;/div&gt;" style="text;html=1;align=left;verticalAlign=middle;resizable=0;points=[];autosize=1;strokeColor=none;fillColor=none;fontSize=14;" parent="LcrMxiL6GuTGsdU8cqxs-20" vertex="1">
          <mxGeometry y="70" width="500" height="180" as="geometry" />
        </mxCell>
        <mxCell id="0-hA2W_cpCPpV_t6YLu7-10" value="PieceWorker" style="swimlane;fontSize=14;startSize=23;" parent="1" vertex="1">
          <mxGeometry x="1100" y="320" width="450" height="230" as="geometry" />
        </mxCell>
        <mxCell id="0-hA2W_cpCPpV_t6YLu7-11" value="" style="line;strokeWidth=2;html=1;fontSize=14;" parent="0-hA2W_cpCPpV_t6YLu7-10" vertex="1">
          <mxGeometry y="60" width="450" height="10" as="geometry" />
        </mxCell>
        <mxCell id="0-hA2W_cpCPpV_t6YLu7-12" value="&lt;span style=&quot;font-size: 14px;&quot;&gt;- pieces: int&lt;/span&gt;&lt;div&gt;&lt;span style=&quot;font-size: 14px;&quot;&gt;- wage: double&lt;/span&gt;&lt;/div&gt;" style="text;html=1;align=left;verticalAlign=middle;resizable=0;points=[];autosize=1;strokeColor=none;fillColor=none;fontSize=14;" parent="0-hA2W_cpCPpV_t6YLu7-10" vertex="1">
          <mxGeometry y="20" width="120" height="50" as="geometry" />
        </mxCell>
        <mxCell id="0-hA2W_cpCPpV_t6YLu7-13" value="+ &amp;lt;&amp;lt;constructor&amp;gt;&amp;gt; PieceWorker(firstName: String, lastName: String,&lt;div&gt;&lt;span style=&quot;background-color: initial; white-space-collapse: preserve;&quot;&gt;&#x9;&lt;/span&gt;&lt;span style=&quot;background-color: initial; white-space-collapse: preserve;&quot;&gt;&#x9;&lt;/span&gt;&lt;span style=&quot;background-color: initial; white-space-collapse: preserve;&quot;&gt;&#x9;&lt;span style=&quot;white-space-collapse: preserve;&quot;&gt;&#x9;&lt;/span&gt;&lt;span style=&quot;white-space-collapse: preserve;&quot;&gt;&#x9;&lt;/span&gt;&lt;span style=&quot;white-space-collapse: preserve;&quot;&gt;&#x9;&lt;/span&gt;    s&lt;/span&gt;&lt;span style=&quot;background-color: initial;&quot;&gt;ocialSecurityNumber: String,&amp;nbsp;&lt;/span&gt;&lt;/div&gt;&lt;div&gt;&lt;span style=&quot;background-color: initial;&quot;&gt;&lt;span style=&quot;white-space-collapse: preserve;&quot;&gt;&#x9;&lt;/span&gt;&lt;span style=&quot;white-space-collapse: preserve;&quot;&gt;&#x9;&lt;/span&gt;&lt;span style=&quot;white-space-collapse: preserve;&quot;&gt;&#x9;&lt;/span&gt;&lt;span style=&quot;white-space-collapse: preserve;&quot;&gt;&#x9;&lt;/span&gt;&lt;span style=&quot;white-space-collapse: preserve;&quot;&gt;&#x9;&lt;/span&gt;&amp;nbsp; &amp;nbsp; &amp;nbsp; &amp;nbsp; &amp;nbsp; &amp;nbsp; pieces: int, wag&lt;/span&gt;&lt;span style=&quot;background-color: initial;&quot;&gt;e: double&lt;/span&gt;&lt;span style=&quot;background-color: initial;&quot;&gt;)&lt;/span&gt;&lt;/div&gt;&lt;div&gt;&lt;span style=&quot;background-color: initial;&quot;&gt;+ setPieces(pieces: int)&lt;/span&gt;&lt;/div&gt;&lt;div&gt;&lt;span style=&quot;background-color: initial;&quot;&gt;+ setWage(wage: double)&lt;/span&gt;&lt;/div&gt;&lt;div&gt;&lt;span style=&quot;background-color: initial;&quot;&gt;+ getPieces(): int&lt;/span&gt;&lt;/div&gt;&lt;div&gt;&lt;span style=&quot;background-color: initial;&quot;&gt;+ getWage(): double&lt;/span&gt;&lt;/div&gt;&lt;div&gt;&lt;span style=&quot;background-color: initial;&quot;&gt;+ earnings(): double&lt;/span&gt;&lt;/div&gt;&lt;div style=&quot;font-size: 14px;&quot;&gt;&lt;div style=&quot;font-size: 14px;&quot;&gt;+ toString(): String&lt;/div&gt;&lt;/div&gt;" style="text;html=1;align=left;verticalAlign=middle;resizable=0;points=[];autosize=1;strokeColor=none;fillColor=none;fontSize=14;" parent="0-hA2W_cpCPpV_t6YLu7-10" vertex="1">
          <mxGeometry y="70" width="450" height="160" as="geometry" />
        </mxCell>
        <mxCell id="0-hA2W_cpCPpV_t6YLu7-14" style="edgeStyle=orthogonalEdgeStyle;rounded=0;orthogonalLoop=1;jettySize=auto;html=1;entryX=0.5;entryY=0;entryDx=0;entryDy=0;" parent="1" source="LcrMxiL6GuTGsdU8cqxs-5" target="LcrMxiL6GuTGsdU8cqxs-8" edge="1">
          <mxGeometry relative="1" as="geometry" />
        </mxCell>
        <mxCell id="0-hA2W_cpCPpV_t6YLu7-18" style="edgeStyle=orthogonalEdgeStyle;rounded=0;orthogonalLoop=1;jettySize=auto;html=1;entryX=0.467;entryY=0.02;entryDx=0;entryDy=0;entryPerimeter=0;" parent="1" source="LcrMxiL6GuTGsdU8cqxs-2" target="LcrMxiL6GuTGsdU8cqxs-12" edge="1">
          <mxGeometry relative="1" as="geometry" />
        </mxCell>
      </root>
    </mxGraphModel>
  </diagram>
</mxfile>
